<?xml version="1.0" standalone="no"?><svg xmlns:xlink="http://www.w3.org/1999/xlink" xmlns="http://www.w3.org/2000/svg" viewBox="0 0 600 1050.0130855105067" preserveAspectRatio="xMaxYMax slice"><g transform="scale(1.586122485665418)"><rect x="0" y="0" width="378.2857142857143" height="662" fill="#ffffff"/><g transform="translate(0,0) scale(2.3645) rotate(0)"><path d="M10 0L20 10L10 20L0 10L10 0Z" fill="#f9fafe"/></g><g transform="translate(47.29,0) scale(2.3645) rotate(0)"><path d="M10 0L20 10L10 20L0 10L10 0Z" fill="#dfd04a"/></g><g transform="translate(94.57,0) scale(2.3645) rotate(0)"><path d="M10 0L20 10L10 20L0 10L10 0Z" fill="#e2d45a"/></g><g transform="translate(141.86,0) scale(2.3645) rotate(0)"><path d="M10 0L20 10L10 20L0 10L10 0Z" fill="#6e8deb"/></g><g transform="translate(189.14,0) scale(2.3645) rotate(0)"><path d="M10 0L20 10L10 20L0 10L10 0Z" fill="#eae085"/></g><g transform="translate(236.43,0) scale(2.3645) rotate(0)"><path d="M10 0L20 10L10 20L0 10L10 0Z" fill="#dbca33"/></g><g transform="translate(283.71,0) scale(2.3645) rotate(0)"><path d="M10 0L20 10L10 20L0 10L10 0Z" fill="#fcfbef"/></g><g transform="translate(331,0) scale(2.3645) rotate(0)"><path d="M10 0L20 10L10 20L0 10L10 0Z" fill="#e4eafb"/></g><g transform="translate(0,47.29) scale(2.3645) rotate(0)"><path d="M10 0L20 10L10 20L0 10L10 0Z" fill="#dbe3fa"/></g><g transform="translate(47.29,47.29) scale(2.3645) rotate(0)"><path d="M10 0L20 10L10 20L0 10L10 0Z" fill="#708feb"/></g><g transform="translate(94.57,47.29) scale(2.3645) rotate(0)"><path d="M10 0L20 10L10 20L0 10L10 0Z" fill="#f0e9ac"/></g><g transform="translate(141.86,47.29) scale(2.3645) rotate(0)"><path d="M10 0L20 10L10 20L0 10L10 0Z" fill="#e6db74"/></g><g transform="translate(189.14,47.29) scale(2.3645) rotate(0)"><path d="M10 0L20 10L10 20L0 10L10 0Z" fill="#d7dff9"/></g><g transform="translate(236.43,47.29) scale(2.3645) rotate(0)"><path d="M10 0L20 10L10 20L0 10L10 0Z" fill="#9cb1f1"/></g><g transform="translate(283.71,47.29) scale(2.3645) rotate(0)"><path d="M10 0L20 10L10 20L0 10L10 0Z" fill="#d9c829"/></g><g transform="translate(331,47.29) scale(2.3645) rotate(0)"><path d="M10 0L20 10L10 20L0 10L10 0Z" fill="#e7dc78"/></g><g transform="translate(0,94.57) scale(2.3645) rotate(0)"><path d="M10 0L20 10L10 20L0 10L10 0Z" fill="#e5ebfb"/></g><g transform="translate(47.29,94.57) scale(2.3645) rotate(0)"><path d="M10 0L20 10L10 20L0 10L10 0Z" fill="#dce4fa"/></g><g transform="translate(94.57,94.57) scale(2.3645) rotate(0)"><path d="M10 0L20 10L10 20L0 10L10 0Z" fill="#dfd04b"/></g><g transform="translate(141.86,94.57) scale(2.3645) rotate(0)"><path d="M10 0L20 10L10 20L0 10L10 0Z" fill="#faf7e1"/></g><g transform="translate(189.14,94.57) scale(2.3645) rotate(0)"><path d="M10 0L20 10L10 20L0 10L10 0Z" fill="#e5d96d"/></g><g transform="translate(236.43,94.57) scale(2.3645) rotate(0)"><path d="M10 0L20 10L10 20L0 10L10 0Z" fill="#eae086"/></g><g transform="translate(283.71,94.57) scale(2.3645) rotate(0)"><path d="M10 0L20 10L10 20L0 10L10 0Z" fill="#8aa3ef"/></g><g transform="translate(331,94.57) scale(2.3645) rotate(0)"><path d="M10 0L20 10L10 20L0 10L10 0Z" fill="#e2d55b"/></g><g transform="translate(0,141.86) scale(2.3645) rotate(0)"><path d="M10 0L20 10L10 20L0 10L10 0Z" fill="#dfd048"/></g><g transform="translate(47.29,141.86) scale(2.3645) rotate(0)"><path d="M10 0L20 10L10 20L0 10L10 0Z" fill="#8fa7f0"/></g><g transform="translate(94.57,141.86) scale(2.3645) rotate(0)"><path d="M10 0L20 10L10 20L0 10L10 0Z" fill="#7c98ed"/></g><g transform="translate(141.86,141.86) scale(2.3645) rotate(0)"><path d="M10 0L20 10L10 20L0 10L10 0Z" fill="#fcfdff"/></g><g transform="translate(189.14,141.86) scale(2.3645) rotate(0)"><path d="M10 0L20 10L10 20L0 10L10 0Z" fill="#f5f0c5"/></g><g transform="translate(236.43,141.86) scale(2.3645) rotate(0)"><path d="M10 0L20 10L10 20L0 10L10 0Z" fill="#b7c6f5"/></g><g transform="translate(283.71,141.86) scale(2.3645) rotate(0)"><path d="M10 0L20 10L10 20L0 10L10 0Z" fill="#d8e0fa"/></g><g transform="translate(331,141.86) scale(2.3645) rotate(0)"><path d="M10 0L20 10L10 20L0 10L10 0Z" fill="#fcfbf0"/></g><g transform="translate(0,189.14) scale(2.3645) rotate(0)"><path d="M10 0L20 10L10 20L0 10L10 0Z" fill="#6686ea"/></g><g transform="translate(47.29,189.14) scale(2.3645) rotate(0)"><path d="M10 0L20 10L10 20L0 10L10 0Z" fill="#718fec"/></g><g transform="translate(94.57,189.14) scale(2.3645) rotate(0)"><path d="M10 0L20 10L10 20L0 10L10 0Z" fill="#cdd8f8"/></g><g transform="translate(141.86,189.14) scale(2.3645) rotate(0)"><path d="M10 0L20 10L10 20L0 10L10 0Z" fill="#becbf6"/></g><g transform="translate(189.14,189.14) scale(2.3645) rotate(0)"><path d="M10 0L20 10L10 20L0 10L10 0Z" fill="#d5def9"/></g><g transform="translate(236.43,189.14) scale(2.3645) rotate(0)"><path d="M10 0L20 10L10 20L0 10L10 0Z" fill="#e8edfc"/></g><g transform="translate(283.71,189.14) scale(2.3645) rotate(0)"><path d="M10 0L20 10L10 20L0 10L10 0Z" fill="#eff2fd"/></g><g transform="translate(331,189.14) scale(2.3645) rotate(0)"><path d="M10 0L20 10L10 20L0 10L10 0Z" fill="#f7f3cf"/></g><g transform="translate(0,236.43) scale(2.3645) rotate(0)"><path d="M10 0L20 10L10 20L0 10L10 0Z" fill="#fcfdff"/></g><g transform="translate(47.29,236.43) scale(2.3645) rotate(0)"><path d="M10 0L20 10L10 20L0 10L10 0Z" fill="#f7f3d1"/></g><g transform="translate(94.57,236.43) scale(2.3645) rotate(0)"><path d="M10 0L20 10L10 20L0 10L10 0Z" fill="#bbcaf6"/></g><g transform="translate(141.86,236.43) scale(2.3645) rotate(0)"><path d="M10 0L20 10L10 20L0 10L10 0Z" fill="#f2ecb3"/></g><g transform="translate(189.14,236.43) scale(2.3645) rotate(0)"><path d="M10 0L20 10L10 20L0 10L10 0Z" fill="#dac92f"/></g><g transform="translate(236.43,236.43) scale(2.3645) rotate(0)"><path d="M10 0L20 10L10 20L0 10L10 0Z" fill="#d7dffa"/></g><g transform="translate(283.71,236.43) scale(2.3645) rotate(0)"><path d="M10 0L20 10L10 20L0 10L10 0Z" fill="#adbff4"/></g><g transform="translate(331,236.43) scale(2.3645) rotate(0)"><path d="M10 0L20 10L10 20L0 10L10 0Z" fill="#e6db72"/></g><g transform="translate(0,283.71) scale(2.3645) rotate(0)"><path d="M10 0L20 10L10 20L0 10L10 0Z" fill="#fbfaeb"/></g><g transform="translate(47.29,283.71) scale(2.3645) rotate(0)"><path d="M10 0L20 10L10 20L0 10L10 0Z" fill="#f9f6dc"/></g><g transform="translate(94.57,283.71) scale(2.3645) rotate(0)"><path d="M10 0L20 10L10 20L0 10L10 0Z" fill="#9fb3f2"/></g><g transform="translate(141.86,283.71) scale(2.3645) rotate(0)"><path d="M10 0L20 10L10 20L0 10L10 0Z" fill="#a7b9f3"/></g><g transform="translate(189.14,283.71) scale(2.3645) rotate(0)"><path d="M10 0L20 10L10 20L0 10L10 0Z" fill="#f2f5fd"/></g><g transform="translate(236.43,283.71) scale(2.3645) rotate(0)"><path d="M10 0L20 10L10 20L0 10L10 0Z" fill="#8ea6ef"/></g><g transform="translate(283.71,283.71) scale(2.3645) rotate(0)"><path d="M10 0L20 10L10 20L0 10L10 0Z" fill="#7a96ed"/></g><g transform="translate(331,283.71) scale(2.3645) rotate(0)"><path d="M10 0L20 10L10 20L0 10L10 0Z" fill="#eef2fd"/></g><g transform="translate(0,331) scale(2.3645) rotate(0)"><path d="M10 0L20 10L10 20L0 10L10 0Z" fill="#f2ecb5"/></g><g transform="translate(47.29,331) scale(2.3645) rotate(0)"><path d="M10 0L20 10L10 20L0 10L10 0Z" fill="#eae18a"/></g><g transform="translate(94.57,331) scale(2.3645) rotate(0)"><path d="M10 0L20 10L10 20L0 10L10 0Z" fill="#dbcb34"/></g><g transform="translate(141.86,331) scale(2.3645) rotate(0)"><path d="M10 0L20 10L10 20L0 10L10 0Z" fill="#d8c623"/></g><g transform="translate(189.14,331) scale(2.3645) rotate(0)"><path d="M10 0L20 10L10 20L0 10L10 0Z" fill="#bfcdf6"/></g><g transform="translate(236.43,331) scale(2.3645) rotate(0)"><path d="M10 0L20 10L10 20L0 10L10 0Z" fill="#5579e8"/></g><g transform="translate(283.71,331) scale(2.3645) rotate(0)"><path d="M10 0L20 10L10 20L0 10L10 0Z" fill="#ece394"/></g><g transform="translate(331,331) scale(2.3645) rotate(0)"><path d="M10 0L20 10L10 20L0 10L10 0Z" fill="#fcfbef"/></g><g transform="translate(0,378.29) scale(2.3645) rotate(0)"><path d="M10 0L20 10L10 20L0 10L10 0Z" fill="#94abf0"/></g><g transform="translate(47.29,378.29) scale(2.3645) rotate(0)"><path d="M10 0L20 10L10 20L0 10L10 0Z" fill="#b9c8f5"/></g><g transform="translate(94.57,378.29) scale(2.3645) rotate(0)"><path d="M10 0L20 10L10 20L0 10L10 0Z" fill="#a0b4f2"/></g><g transform="translate(141.86,378.29) scale(2.3645) rotate(0)"><path d="M10 0L20 10L10 20L0 10L10 0Z" fill="#e9de80"/></g><g transform="translate(189.14,378.29) scale(2.3645) rotate(0)"><path d="M10 0L20 10L10 20L0 10L10 0Z" fill="#e9df81"/></g><g transform="translate(236.43,378.29) scale(2.3645) rotate(0)"><path d="M10 0L20 10L10 20L0 10L10 0Z" fill="#f5f7fe"/></g><g transform="translate(283.71,378.29) scale(2.3645) rotate(0)"><path d="M10 0L20 10L10 20L0 10L10 0Z" fill="#6787ea"/></g><g transform="translate(331,378.29) scale(2.3645) rotate(0)"><path d="M10 0L20 10L10 20L0 10L10 0Z" fill="#cad6f8"/></g><g transform="translate(0,425.57) scale(2.3645) rotate(0)"><path d="M10 0L20 10L10 20L0 10L10 0Z" fill="#bfcdf6"/></g><g transform="translate(47.29,425.57) scale(2.3645) rotate(0)"><path d="M10 0L20 10L10 20L0 10L10 0Z" fill="#f3eebc"/></g><g transform="translate(94.57,425.57) scale(2.3645) rotate(0)"><path d="M10 0L20 10L10 20L0 10L10 0Z" fill="#718fec"/></g><g transform="translate(141.86,425.57) scale(2.3645) rotate(0)"><path d="M10 0L20 10L10 20L0 10L10 0Z" fill="#f3eebc"/></g><g transform="translate(189.14,425.57) scale(2.3645) rotate(0)"><path d="M10 0L20 10L10 20L0 10L10 0Z" fill="#88a1ef"/></g><g transform="translate(236.43,425.57) scale(2.3645) rotate(0)"><path d="M10 0L20 10L10 20L0 10L10 0Z" fill="#dccc37"/></g><g transform="translate(283.71,425.57) scale(2.3645) rotate(0)"><path d="M10 0L20 10L10 20L0 10L10 0Z" fill="#d9e1fa"/></g><g transform="translate(331,425.57) scale(2.3645) rotate(0)"><path d="M10 0L20 10L10 20L0 10L10 0Z" fill="#6f8eeb"/></g><g transform="translate(0,472.86) scale(2.3645) rotate(0)"><path d="M10 0L20 10L10 20L0 10L10 0Z" fill="#5075e7"/></g><g transform="translate(47.29,472.86) scale(2.3645) rotate(0)"><path d="M10 0L20 10L10 20L0 10L10 0Z" fill="#dfd14b"/></g><g transform="translate(94.57,472.86) scale(2.3645) rotate(0)"><path d="M10 0L20 10L10 20L0 10L10 0Z" fill="#b7c6f5"/></g><g transform="translate(141.86,472.86) scale(2.3645) rotate(0)"><path d="M10 0L20 10L10 20L0 10L10 0Z" fill="#5d7fe9"/></g><g transform="translate(189.14,472.86) scale(2.3645) rotate(0)"><path d="M10 0L20 10L10 20L0 10L10 0Z" fill="#e1d356"/></g><g transform="translate(236.43,472.86) scale(2.3645) rotate(0)"><path d="M10 0L20 10L10 20L0 10L10 0Z" fill="#f0e8a8"/></g><g transform="translate(283.71,472.86) scale(2.3645) rotate(0)"><path d="M10 0L20 10L10 20L0 10L10 0Z" fill="#e9df84"/></g><g transform="translate(331,472.86) scale(2.3645) rotate(0)"><path d="M10 0L20 10L10 20L0 10L10 0Z" fill="#a1b5f2"/></g><g transform="translate(0,520.14) scale(2.3645) rotate(0)"><path d="M10 0L20 10L10 20L0 10L10 0Z" fill="#dbca32"/></g><g transform="translate(47.29,520.14) scale(2.3645) rotate(0)"><path d="M10 0L20 10L10 20L0 10L10 0Z" fill="#f8f5d7"/></g><g transform="translate(94.57,520.14) scale(2.3645) rotate(0)"><path d="M10 0L20 10L10 20L0 10L10 0Z" fill="#e9df82"/></g><g transform="translate(141.86,520.14) scale(2.3645) rotate(0)"><path d="M10 0L20 10L10 20L0 10L10 0Z" fill="#edf0fc"/></g><g transform="translate(189.14,520.14) scale(2.3645) rotate(0)"><path d="M10 0L20 10L10 20L0 10L10 0Z" fill="#6a8aeb"/></g><g transform="translate(236.43,520.14) scale(2.3645) rotate(0)"><path d="M10 0L20 10L10 20L0 10L10 0Z" fill="#ddce40"/></g><g transform="translate(283.71,520.14) scale(2.3645) rotate(0)"><path d="M10 0L20 10L10 20L0 10L10 0Z" fill="#f3eebb"/></g><g transform="translate(331,520.14) scale(2.3645) rotate(0)"><path d="M10 0L20 10L10 20L0 10L10 0Z" fill="#d5def9"/></g><g transform="translate(0,567.43) scale(2.3645) rotate(0)"><path d="M10 0L20 10L10 20L0 10L10 0Z" fill="#e9de80"/></g><g transform="translate(47.29,567.43) scale(2.3645) rotate(0)"><path d="M10 0L20 10L10 20L0 10L10 0Z" fill="#f3eebd"/></g><g transform="translate(94.57,567.43) scale(2.3645) rotate(0)"><path d="M10 0L20 10L10 20L0 10L10 0Z" fill="#e1e7fb"/></g><g transform="translate(141.86,567.43) scale(2.3645) rotate(0)"><path d="M10 0L20 10L10 20L0 10L10 0Z" fill="#f8f4d5"/></g><g transform="translate(189.14,567.43) scale(2.3645) rotate(0)"><path d="M10 0L20 10L10 20L0 10L10 0Z" fill="#e8de7d"/></g><g transform="translate(236.43,567.43) scale(2.3645) rotate(0)"><path d="M10 0L20 10L10 20L0 10L10 0Z" fill="#89a2ef"/></g><g transform="translate(283.71,567.43) scale(2.3645) rotate(0)"><path d="M10 0L20 10L10 20L0 10L10 0Z" fill="#f8f5da"/></g><g transform="translate(331,567.43) scale(2.3645) rotate(0)"><path d="M10 0L20 10L10 20L0 10L10 0Z" fill="#eef2fd"/></g><g transform="translate(0,614.71) scale(2.3645) rotate(0)"><path d="M10 0L20 10L10 20L0 10L10 0Z" fill="#5176e7"/></g><g transform="translate(47.29,614.71) scale(2.3645) rotate(0)"><path d="M10 0L20 10L10 20L0 10L10 0Z" fill="#b6c6f5"/></g><g transform="translate(94.57,614.71) scale(2.3645) rotate(0)"><path d="M10 0L20 10L10 20L0 10L10 0Z" fill="#577ae8"/></g><g transform="translate(141.86,614.71) scale(2.3645) rotate(0)"><path d="M10 0L20 10L10 20L0 10L10 0Z" fill="#f8f5d6"/></g><g transform="translate(189.14,614.71) scale(2.3645) rotate(0)"><path d="M10 0L20 10L10 20L0 10L10 0Z" fill="#708eeb"/></g><g transform="translate(236.43,614.71) scale(2.3645) rotate(0)"><path d="M10 0L20 10L10 20L0 10L10 0Z" fill="#f1eaaf"/></g><g transform="translate(283.71,614.71) scale(2.3645) rotate(0)"><path d="M10 0L20 10L10 20L0 10L10 0Z" fill="#fcfaeb"/></g><g transform="translate(331,614.71) scale(2.3645) rotate(0)"><path d="M10 0L20 10L10 20L0 10L10 0Z" fill="#f1eaaf"/></g></g></svg>