<?xml version="1.0" standalone="no"?><svg xmlns:xlink="http://www.w3.org/1999/xlink" xmlns="http://www.w3.org/2000/svg" viewBox="0 0 700 1400" preserveAspectRatio="xMaxYMax slice"><g transform="scale(2.1148036253776437)"><rect x="0" y="0" width="331" height="662" fill="#000000"/><rect x="0" y="0" width="82.75" height="82.75" fill="#000019"/><path d="M 0 0 A 82.75 82.75 0 0 0 82.75 82.75 L 82.75 0" fill="#00001a"/><rect x="82.75" y="0" width="82.75" height="82.75" fill="#000010"/><path d="M 82.75 82.75 A 82.75 82.75 0 0 1  165.5 0 L 165.5 82.75" fill="#000000"/><rect x="165.5" y="0" width="82.75" height="82.75" fill="#010130"/><path d="M 165.5 0 A 82.75 82.75 0 0 1 248.25 82.75 L 165.5 82.75" fill="#01012a"/><rect x="248.25" y="0" width="82.75" height="82.75" fill="#000000"/><path d="M 248.25 82.75 A 82.75 82.75 0 0 1  331 0 L 248.25 82.75 A 82.75 82.75 0 0 0 331 0" fill="#000000"/><rect x="0" y="82.75" width="82.75" height="82.75" fill="#000000"/><rect x="0" y="82.75" width="41.38" height="41.38" fill="#01012b"/><path d="M 0 82.75 A 41.38 41.38 0 0 1  41.38 124.13 L 0 82.75 A 41.38 41.38 0 0 0 41.38 124.13" fill="#010133"/><rect x="41.38" y="82.75" width="41.38" height="41.38" fill="#000000"/><path d="M 41.38 82.75 A 41.38 41.38 0 0 0 82.76 124.13 L 82.76 82.75" fill="#000000"/><rect x="0" y="124.13" width="41.38" height="41.38" fill="#01012f"/><path d="M 0 165.51 A 41.38 41.38 0 0 1  41.38 124.13 L 41.38 165.51" fill="#000007"/><rect x="41.38" y="124.13" width="41.38" height="41.38" fill="#01013c"/><path d="M 41.38 124.13 A 41.38 41.38 0 0 0 82.76 165.51 L 82.76 124.13" fill="#010134"/><rect x="82.75" y="82.75" width="82.75" height="82.75" fill="#000013"/><path d="M 82.75 165.5 A 82.75 82.75 0 0 1  165.5 82.75 L 165.5 165.5" fill="#01013b"/><rect x="165.5" y="82.75" width="82.75" height="82.75" fill="#000000"/><path d="M 165.5 82.75 A 82.75 82.75 0 0 1  248.25 165.5 L 165.5 82.75 A 82.75 82.75 0 0 0 248.25 165.5" fill="#010126"/><rect x="248.25" y="82.75" width="82.75" height="82.75" fill="#000000"/><rect x="248.25" y="82.75" width="41.38" height="41.38" fill="#000000"/><path d="M 248.25 124.13 A 41.38 41.38 0 0 1  289.63 82.75 L 248.25 124.13 A 41.38 41.38 0 0 0 289.63 82.75" fill="#000000"/><rect x="289.63" y="82.75" width="41.38" height="41.38" fill="#000016"/><path d="M 289.63 82.75 A 41.38 41.38 0 0 0 331.01 124.13 L 331.01 82.75" fill="#000016"/><rect x="248.25" y="124.13" width="41.38" height="41.38" fill="#000000"/><path d="M 248.25 165.51 A 41.38 41.38 0 0 1  289.63 124.13 L 248.25 165.51 A 41.38 41.38 0 0 0 289.63 124.13" fill="#010128"/><rect x="289.63" y="124.13" width="41.38" height="41.38" fill="#000000"/><path d="M 289.63 165.51 A 41.38 41.38 0 0 0 331.01 124.13 L 289.63 124.13" fill="#000000"/><rect x="0" y="165.5" width="82.75" height="82.75" fill="#000000"/><rect x="0" y="165.5" width="41.38" height="41.38" fill="#000000"/><path d="M 0 165.5 A 41.38 41.38 0 0 0 41.38 206.88 L 41.38 165.5" fill="#000000"/><rect x="41.38" y="165.5" width="41.38" height="41.38" fill="#01013d"/><path d="M 41.38 165.5 A 41.38 41.38 0 0 1 82.76 206.88 L 41.38 206.88" fill="#010125"/><rect x="0" y="206.88" width="41.38" height="41.38" fill="#000012"/><path d="M 0 248.26 A 41.38 41.38 0 0 1  41.38 206.88 L 41.38 248.26" fill="#000000"/><rect x="41.38" y="206.88" width="41.38" height="41.38" fill="#000012"/><path d="M 41.38 206.88 A 41.38 41.38 0 0 1 82.76 248.26 L 41.38 248.26" fill="#000000"/><rect x="82.75" y="165.5" width="82.75" height="82.75" fill="#000000"/><path d="M 82.75 165.5 A 82.75 82.75 0 0 1  165.5 248.25 L 82.75 165.5 A 82.75 82.75 0 0 0 165.5 248.25" fill="#000000"/><rect x="165.5" y="165.5" width="82.75" height="82.75" fill="#010126"/><path d="M 165.5 165.5 A 82.75 82.75 0 0 0 248.25 248.25 L 248.25 165.5" fill="#000000"/><rect x="248.25" y="165.5" width="82.75" height="82.75" fill="#000000"/><rect x="248.25" y="165.5" width="41.38" height="41.38" fill="#000000"/><path d="M 248.25 165.5 A 41.38 41.38 0 0 1  289.63 206.88 L 248.25 165.5 A 41.38 41.38 0 0 0 289.63 206.88" fill="#000000"/><rect x="289.63" y="165.5" width="41.38" height="41.38" fill="#000000"/><path d="M 289.63 165.5 A 41.38 41.38 0 0 1 331.01 206.88 L 289.63 206.88" fill="#010127"/><rect x="248.25" y="206.88" width="41.38" height="41.38" fill="#000000"/><path d="M 248.25 248.26 A 41.38 41.38 0 0 1  289.63 206.88 L 289.63 248.26" fill="#010135"/><rect x="289.63" y="206.88" width="41.38" height="41.38" fill="#000000"/><path d="M 289.63 248.26 A 41.38 41.38 0 0 1  331.01 206.88 L 331.01 248.26" fill="#000000"/><rect x="0" y="248.25" width="82.75" height="82.75" fill="#00000f"/><path d="M 0 248.25 A 82.75 82.75 0 0 1 82.75 331 L 0 331" fill="#000012"/><rect x="82.75" y="248.25" width="82.75" height="82.75" fill="#000000"/><path d="M 82.75 331 A 82.75 82.75 0 0 0 165.5 248.25 L 82.75 248.25" fill="#000005"/><rect x="165.5" y="248.25" width="82.75" height="82.75" fill="#000000"/><rect x="165.5" y="248.25" width="41.38" height="41.38" fill="#00000e"/><path d="M 165.5 289.63 A 41.38 41.38 0 0 0 206.88 248.25 L 165.5 248.25" fill="#000000"/><rect x="206.88" y="248.25" width="41.38" height="41.38" fill="#010127"/><path d="M 206.88 248.25 A 41.38 41.38 0 0 0 248.26 289.63 L 248.26 248.25" fill="#010129"/><rect x="165.5" y="289.63" width="41.38" height="41.38" fill="#00000c"/><path d="M 165.5 331.01 A 41.38 41.38 0 0 1  206.88 289.63 L 206.88 331.01" fill="#000000"/><rect x="206.88" y="289.63" width="41.38" height="41.38" fill="#010131"/><path d="M 206.88 331.01 A 41.38 41.38 0 0 0 248.26 289.63 L 206.88 289.63" fill="#010127"/><rect x="248.25" y="248.25" width="82.75" height="82.75" fill="#000000"/><rect x="248.25" y="248.25" width="41.38" height="41.38" fill="#000000"/><path d="M 248.25 248.25 A 41.38 41.38 0 0 0 289.63 289.63 L 289.63 248.25" fill="#000018"/><rect x="289.63" y="248.25" width="41.38" height="41.38" fill="#00001e"/><path d="M 289.63 289.63 A 41.38 41.38 0 0 1  331.01 248.25 L 289.63 289.63 A 41.38 41.38 0 0 0 331.01 248.25" fill="#000000"/><rect x="248.25" y="289.63" width="41.38" height="41.38" fill="#000000"/><path d="M 248.25 289.63 A 41.38 41.38 0 0 1 289.63 331.01 L 248.25 331.01" fill="#000000"/><rect x="289.63" y="289.63" width="41.38" height="41.38" fill="#00000c"/><path d="M 289.63 331.01 A 41.38 41.38 0 0 0 331.01 289.63 L 289.63 289.63" fill="#000000"/><rect x="0" y="331" width="82.75" height="82.75" fill="#000000"/><rect x="0" y="331" width="41.38" height="41.38" fill="#000000"/><path d="M 0 372.38 A 41.38 41.38 0 0 0 41.38 331 L 0 331" fill="#000000"/><rect x="41.38" y="331" width="41.38" height="41.38" fill="#000000"/><path d="M 41.38 331 A 41.38 41.38 0 0 1 82.76 372.38 L 41.38 372.38" fill="#000000"/><rect x="0" y="372.38" width="41.38" height="41.38" fill="#01012d"/><path d="M 0 372.38 A 41.38 41.38 0 0 1  41.38 413.76 L 0 372.38 A 41.38 41.38 0 0 0 41.38 413.76" fill="#000000"/><rect x="41.38" y="372.38" width="41.38" height="41.38" fill="#000000"/><path d="M 41.38 413.76 A 41.38 41.38 0 0 1  82.76 372.38 L 82.76 413.76" fill="#000010"/><rect x="82.75" y="331" width="82.75" height="82.75" fill="#000000"/><path d="M 82.75 413.75 A 82.75 82.75 0 0 1  165.5 331 L 82.75 413.75 A 82.75 82.75 0 0 0 165.5 331" fill="#000000"/><rect x="165.5" y="331" width="82.75" height="82.75" fill="#000000"/><rect x="165.5" y="331" width="41.38" height="41.38" fill="#010121"/><path d="M 165.5 331 A 41.38 41.38 0 0 1  206.88 372.38 L 165.5 331 A 41.38 41.38 0 0 0 206.88 372.38" fill="#01013b"/><rect x="206.88" y="331" width="41.38" height="41.38" fill="#00000d"/><path d="M 206.88 331 A 41.38 41.38 0 0 1  248.26 372.38 L 206.88 331 A 41.38 41.38 0 0 0 248.26 372.38" fill="#000000"/><rect x="165.5" y="372.38" width="41.38" height="41.38" fill="#01013b"/><path d="M 165.5 372.38 A 41.38 41.38 0 0 1 206.88 413.76 L 165.5 413.76" fill="#000000"/><rect x="206.88" y="372.38" width="41.38" height="41.38" fill="#000000"/><path d="M 206.88 413.76 A 41.38 41.38 0 0 0 248.26 372.38 L 206.88 372.38" fill="#000011"/><rect x="248.25" y="331" width="82.75" height="82.75" fill="#000000"/><path d="M 248.25 331 A 82.75 82.75 0 0 0 331 413.75 L 331 331" fill="#01012f"/><rect x="0" y="413.75" width="82.75" height="82.75" fill="#01013a"/><path d="M 0 496.5 A 82.75 82.75 0 0 1  82.75 413.75 L 82.75 496.5" fill="#00000a"/><rect x="82.75" y="413.75" width="82.75" height="82.75" fill="#000000"/><path d="M 82.75 413.75 A 82.75 82.75 0 0 1  165.5 496.5 L 82.75 413.75 A 82.75 82.75 0 0 0 165.5 496.5" fill="#000000"/><rect x="165.5" y="413.75" width="82.75" height="82.75" fill="#000000"/><rect x="165.5" y="413.75" width="41.38" height="41.38" fill="#010129"/><path d="M 165.5 455.13 A 41.38 41.38 0 0 1  206.88 413.75 L 206.88 455.13" fill="#000013"/><rect x="206.88" y="413.75" width="41.38" height="41.38" fill="#00000b"/><path d="M 206.88 413.75 A 41.38 41.38 0 0 0 248.26 455.13 L 248.26 413.75" fill="#000000"/><rect x="165.5" y="455.13" width="41.38" height="41.38" fill="#00000e"/><path d="M 165.5 496.51 A 41.38 41.38 0 0 1  206.88 455.13 L 206.88 496.51" fill="#000000"/><rect x="206.88" y="455.13" width="41.38" height="41.38" fill="#010129"/><path d="M 206.88 496.51 A 41.38 41.38 0 0 0 248.26 455.13 L 206.88 455.13" fill="#000000"/><rect x="248.25" y="413.75" width="82.75" height="82.75" fill="#010138"/><path d="M 248.25 413.75 A 82.75 82.75 0 0 1  331 496.5 L 248.25 413.75 A 82.75 82.75 0 0 0 331 496.5" fill="#000000"/><rect x="0" y="496.5" width="82.75" height="82.75" fill="#000000"/><path d="M 0 579.25 A 82.75 82.75 0 0 1  82.75 496.5 L 82.75 579.25" fill="#01012e"/><rect x="82.75" y="496.5" width="82.75" height="82.75" fill="#000000"/><rect x="82.75" y="496.5" width="41.38" height="41.38" fill="#000019"/><path d="M 82.75 496.5 A 41.38 41.38 0 0 1  124.13 537.88 L 82.75 496.5 A 41.38 41.38 0 0 0 124.13 537.88" fill="#000000"/><rect x="124.13" y="496.5" width="41.38" height="41.38" fill="#00000b"/><path d="M 124.13 496.5 A 41.38 41.38 0 0 1  165.51 537.88 L 124.13 496.5 A 41.38 41.38 0 0 0 165.51 537.88" fill="#000000"/><rect x="82.75" y="537.88" width="41.38" height="41.38" fill="#000000"/><path d="M 82.75 579.26 A 41.38 41.38 0 0 1  124.13 537.88 L 124.13 579.26" fill="#01011f"/><rect x="124.13" y="537.88" width="41.38" height="41.38" fill="#000001"/><path d="M 124.13 579.26 A 41.38 41.38 0 0 0 165.51 537.88 L 124.13 537.88" fill="#000000"/><rect x="165.5" y="496.5" width="82.75" height="82.75" fill="#01012f"/><path d="M 165.5 579.25 A 82.75 82.75 0 0 0 248.25 496.5 L 165.5 496.5" fill="#000000"/><rect x="248.25" y="496.5" width="82.75" height="82.75" fill="#000000"/><rect x="248.25" y="496.5" width="41.38" height="41.38" fill="#000000"/><path d="M 248.25 496.5 A 41.38 41.38 0 0 1 289.63 537.88 L 248.25 537.88" fill="#010124"/><rect x="289.63" y="496.5" width="41.38" height="41.38" fill="#01013b"/><path d="M 289.63 537.88 A 41.38 41.38 0 0 0 331.01 496.5 L 289.63 496.5" fill="#000000"/><rect x="248.25" y="537.88" width="41.38" height="41.38" fill="#000011"/><path d="M 248.25 537.88 A 41.38 41.38 0 0 1 289.63 579.26 L 248.25 579.26" fill="#000000"/><rect x="289.63" y="537.88" width="41.38" height="41.38" fill="#000000"/><path d="M 289.63 579.26 A 41.38 41.38 0 0 0 331.01 537.88 L 289.63 537.88" fill="#000013"/><rect x="0" y="579.25" width="82.75" height="82.75" fill="#000000"/><rect x="0" y="579.25" width="41.38" height="41.38" fill="#000017"/><path d="M 0 620.63 A 41.38 41.38 0 0 0 41.38 579.25 L 0 579.25" fill="#000000"/><rect x="41.38" y="579.25" width="41.38" height="41.38" fill="#000000"/><path d="M 41.38 620.63 A 41.38 41.38 0 0 0 82.76 579.25 L 41.38 579.25" fill="#000000"/><rect x="0" y="620.63" width="41.38" height="41.38" fill="#00000a"/><path d="M 0 662.01 A 41.38 41.38 0 0 1  41.38 620.63 L 0 662.01 A 41.38 41.38 0 0 0 41.38 620.63" fill="#01012f"/><rect x="41.38" y="620.63" width="41.38" height="41.38" fill="#01012c"/><path d="M 41.38 662.01 A 41.38 41.38 0 0 0 82.76 620.63 L 41.38 620.63" fill="#000000"/><rect x="82.75" y="579.25" width="82.75" height="82.75" fill="#000000"/><path d="M 82.75 579.25 A 82.75 82.75 0 0 1  165.5 662 L 82.75 579.25 A 82.75 82.75 0 0 0 165.5 662" fill="#000007"/><rect x="165.5" y="579.25" width="82.75" height="82.75" fill="#000000"/><path d="M 165.5 579.25 A 82.75 82.75 0 0 0 248.25 662 L 248.25 579.25" fill="#000011"/><rect x="248.25" y="579.25" width="82.75" height="82.75" fill="#000000"/><path d="M 248.25 579.25 A 82.75 82.75 0 0 1  331 662 L 248.25 579.25 A 82.75 82.75 0 0 0 331 662" fill="#000000"/></g></svg>