<?xml version="1.0" standalone="no"?><svg xmlns:xlink="http://www.w3.org/1999/xlink" xmlns="http://www.w3.org/2000/svg" viewBox="0 0 800 1600" preserveAspectRatio="xMaxYMax slice"><g transform="scale(2.416918429003021)"><rect x="0" y="0" width="331" height="662" fill="#000000"/><rect x="0" y="0" width="82.75" height="82.75" fill="#000000"/><rect x="0" y="0" width="41.38" height="41.38" fill="#000000"/><circle cx="20.69" cy="20.69" r="20.69" fill="#000000"/><rect x="41.38" y="0" width="41.38" height="41.38" fill="#181818"/><rect x="41.38" y="0" width="41.38" height="41.38" fill="#000000"/><rect x="0" y="41.38" width="41.38" height="41.38" fill="#000000"/><circle cx="20.69" cy="62.07000000000001" r="20.69" fill="#1d1d1d"/><rect x="41.38" y="41.38" width="41.38" height="41.38" fill="#0f0f0f"/><rect x="41.38" y="41.38" width="41.38" height="41.38" fill="#000000"/><rect x="82.75" y="0" width="82.75" height="82.75" fill="#000000"/><rect x="82.75" y="0" width="41.38" height="41.38" fill="#262626"/><polygon points="124.13,0 124.13,41.38 82.75,41.38" fill="#1f1f1f"/><rect x="124.13" y="0" width="41.38" height="41.38" fill="#0a0a0a"/><polygon points="124.13,0 165.51,41.38 124.13,41.38" fill="#000000"/><rect x="82.75" y="41.38" width="41.38" height="41.38" fill="#0d0d0d"/><polygon points="82.75,41.38 124.13,41.38 124.13,82.76" fill="#1a1a1a"/><rect x="124.13" y="41.38" width="41.38" height="41.38" fill="#090909"/><polygon points="124.13,41.38 165.51,41.38 124.13,82.76" fill="#000000"/><rect x="165.5" y="0" width="82.75" height="82.75" fill="#000000"/><rect x="165.5" y="0" width="41.38" height="41.38" fill="#121212"/><path d="M 165.5 41.38 A 41.38 41.38 0 0 1 206.88 0 L 206.88 10.345 A 31.035000000000004 31.035000000000004 0 0 0 175.845 41.38" fill="#000000"/><rect x="206.88" y="0" width="41.38" height="41.38" fill="#000000"/><path d="M 206.88 0 A 41.38 41.38 0 0 1 248.26 41.38 L 237.915 41.38 A 31.035000000000004 31.035000000000004 0 0 0 206.88 10.345" fill="#000000"/><rect x="165.5" y="41.38" width="41.38" height="41.38" fill="#0b0b0b"/><path d="M 165.5 41.38 A 41.38 41.38 0 0 0 206.88 82.76 L 206.88 72.415 A 31.035000000000004 31.035000000000004 0 0 1 175.845 41.38" fill="#020202"/><rect x="206.88" y="41.38" width="41.38" height="41.38" fill="#000000"/><path d="M 206.88 82.76 A 41.38 41.38 0 0 0 248.26 41.38 L 237.915 41.38 A 31.035000000000004 31.035000000000004 0 0 1 206.88 72.415" fill="#1a1a1a"/><rect x="248.25" y="0" width="82.75" height="82.75" fill="#000000"/><rect x="248.25" y="0" width="41.38" height="41.38" fill="#000000"/><path d="M 248.25 41.38 A 41.38 41.38 0 0 1  289.63 0 L 289.63 41.38" fill="#000000"/><rect x="289.63" y="0" width="41.38" height="41.38" fill="#000000"/><path d="M 289.63 0 A 41.38 41.38 0 0 1 331.01 41.38 L 289.63 41.38" fill="#000000"/><rect x="248.25" y="41.38" width="41.38" height="41.38" fill="#000000"/><path d="M 248.25 41.38 A 41.38 41.38 0 0 0 289.63 82.76 L 289.63 41.38" fill="#212121"/><rect x="289.63" y="41.38" width="41.38" height="41.38" fill="#000000"/><path d="M 289.63 82.76 A 41.38 41.38 0 0 0 331.01 41.38 L 289.63 41.38" fill="#232323"/><rect x="0" y="82.75" width="82.75" height="82.75" fill="#000000"/><polygon points="82.75,82.75 82.75,165.5 0,165.5" fill="#000000"/><rect x="82.75" y="82.75" width="82.75" height="82.75" fill="#000000"/><rect x="82.75" y="82.75" width="41.38" height="41.38" fill="#161616"/><path d="M 82.75 82.75 A 41.38 41.38 0 0 1 124.13 124.13 L 82.75 124.13" fill="#0b0b0b"/><rect x="124.13" y="82.75" width="41.38" height="41.38" fill="#282828"/><path d="M 124.13 124.13 A 41.38 41.38 0 0 1  165.51 82.75 L 165.51 124.13" fill="#0a0a0a"/><rect x="82.75" y="124.13" width="41.38" height="41.38" fill="#0c0c0c"/><path d="M 82.75 165.51 A 41.38 41.38 0 0 0 124.13 124.13 L 82.75 124.13" fill="#070707"/><rect x="124.13" y="124.13" width="41.38" height="41.38" fill="#000000"/><path d="M 124.13 124.13 A 41.38 41.38 0 0 0 165.51 165.51 L 165.51 124.13" fill="#000000"/><rect x="165.5" y="82.75" width="82.75" height="82.75" fill="#000000"/><polygon points="248.25,82.75 248.25,165.5 165.5,165.5" fill="#070707"/><rect x="248.25" y="82.75" width="82.75" height="82.75" fill="#000000"/><rect x="248.25" y="82.75" width="41.38" height="41.38" fill="#000000"/><polygon points="289.63,82.75 289.63,124.13 248.25,124.13" fill="#000000"/><rect x="289.63" y="82.75" width="41.38" height="41.38" fill="#0f0f0f"/><polygon points="289.63,82.75 331.01,124.13 289.63,124.13" fill="#000000"/><rect x="248.25" y="124.13" width="41.38" height="41.38" fill="#1b1b1b"/><polygon points="248.25,124.13 289.63,124.13 248.25,165.51" fill="#1a1a1a"/><rect x="289.63" y="124.13" width="41.38" height="41.38" fill="#000000"/><polygon points="289.63,124.13 331.01,124.13 331.01,165.51" fill="#000000"/><rect x="0" y="165.5" width="82.75" height="82.75" fill="#000000"/><rect x="0" y="165.5" width="41.38" height="41.38" fill="#000000"/><path d="M 0 206.88 A 41.38 41.38 0 0 1  41.38 165.5 L 41.38 206.88" fill="#0a0a0a"/><rect x="41.38" y="165.5" width="41.38" height="41.38" fill="#101010"/><path d="M 41.38 165.5 A 41.38 41.38 0 0 1 82.76 206.88 L 41.38 206.88" fill="#020202"/><rect x="0" y="206.88" width="41.38" height="41.38" fill="#000000"/><path d="M 0 206.88 A 41.38 41.38 0 0 0 41.38 248.26 L 41.38 206.88" fill="#000000"/><rect x="41.38" y="206.88" width="41.38" height="41.38" fill="#282828"/><path d="M 41.38 248.26 A 41.38 41.38 0 0 0 82.76 206.88 L 41.38 206.88" fill="#090909"/><rect x="82.75" y="165.5" width="82.75" height="82.75" fill="#000000"/><rect x="82.75" y="165.5" width="41.38" height="41.38" fill="#1d1d1d"/><polygon points="124.13,165.5 124.13,206.88 82.75,206.88" fill="#151515"/><rect x="124.13" y="165.5" width="41.38" height="41.38" fill="#000000"/><polygon points="124.13,165.5 165.51,206.88 124.13,206.88" fill="#000000"/><rect x="82.75" y="206.88" width="41.38" height="41.38" fill="#242424"/><polygon points="82.75,206.88 124.13,206.88 82.75,248.26" fill="#000000"/><rect x="124.13" y="206.88" width="41.38" height="41.38" fill="#101010"/><polygon points="124.13,206.88 165.51,206.88 165.51,248.26" fill="#151515"/><rect x="165.5" y="165.5" width="82.75" height="82.75" fill="#000000"/><rect x="165.5" y="165.5" width="41.38" height="41.38" fill="#000000"/><circle cx="186.19" cy="186.19" r="20.69" fill="#000000"/><rect x="206.88" y="165.5" width="41.38" height="41.38" fill="#000000"/><rect x="206.88" y="165.5" width="41.38" height="41.38" fill="#202020"/><rect x="165.5" y="206.88" width="41.38" height="41.38" fill="#000000"/><circle cx="186.19" cy="227.57" r="20.69" fill="#141414"/><rect x="206.88" y="206.88" width="41.38" height="41.38" fill="#0c0c0c"/><rect x="206.88" y="206.88" width="41.38" height="41.38" fill="#252525"/><rect x="248.25" y="165.5" width="82.75" height="82.75" fill="#212121"/><polygon points="248.25,165.5 331,248.25 248.25,248.25" fill="#080808"/><rect x="0" y="248.25" width="82.75" height="82.75" fill="#000000"/><rect x="0" y="248.25" width="41.38" height="41.38" fill="#0a0a0a"/><circle cx="20.69" cy="268.94" r="20.69" fill="#0c0c0c"/><rect x="41.38" y="248.25" width="41.38" height="41.38" fill="#000000"/><rect x="41.38" y="248.25" width="41.38" height="41.38" fill="#060606"/><rect x="0" y="289.63" width="41.38" height="41.38" fill="#0f0f0f"/><circle cx="20.69" cy="310.32" r="20.69" fill="#0d0d0d"/><rect x="41.38" y="289.63" width="41.38" height="41.38" fill="#000000"/><rect x="41.38" y="289.63" width="41.38" height="41.38" fill="#000000"/><rect x="82.75" y="248.25" width="82.75" height="82.75" fill="#010101"/><polygon points="82.75,248.25 165.5,248.25 82.75,331" fill="#212121"/><rect x="165.5" y="248.25" width="82.75" height="82.75" fill="#000000"/><rect x="165.5" y="248.25" width="41.38" height="41.38" fill="#000000"/><polygon points="206.88,248.25 206.88,289.63 165.5,289.63" fill="#161616"/><rect x="206.88" y="248.25" width="41.38" height="41.38" fill="#000000"/><polygon points="206.88,248.25 248.26,289.63 206.88,289.63" fill="#000000"/><rect x="165.5" y="289.63" width="41.38" height="41.38" fill="#000000"/><polygon points="165.5,289.63 206.88,289.63 206.88,331.01" fill="#000000"/><rect x="206.88" y="289.63" width="41.38" height="41.38" fill="#1a1a1a"/><polygon points="206.88,289.63 248.26,289.63 206.88,331.01" fill="#000000"/><rect x="248.25" y="248.25" width="82.75" height="82.75" fill="#000000"/><rect x="248.25" y="248.25" width="41.38" height="41.38" fill="#202020"/><polygon points="289.63,248.25 289.63,289.63 248.25,289.63" fill="#222222"/><rect x="289.63" y="248.25" width="41.38" height="41.38" fill="#000000"/><polygon points="289.63,248.25 331.01,289.63 289.63,289.63" fill="#070707"/><rect x="248.25" y="289.63" width="41.38" height="41.38" fill="#000000"/><polygon points="248.25,289.63 289.63,289.63 289.63,331.01" fill="#020202"/><rect x="289.63" y="289.63" width="41.38" height="41.38" fill="#000000"/><polygon points="289.63,289.63 331.01,289.63 289.63,331.01" fill="#000000"/><rect x="0" y="331" width="82.75" height="82.75" fill="#000000"/><rect x="0" y="331" width="41.38" height="41.38" fill="#181818"/><polygon points="41.38,331 41.38,372.38 0,372.38" fill="#000000"/><rect x="41.38" y="331" width="41.38" height="41.38" fill="#000000"/><polygon points="41.38,331 82.76,372.38 41.38,372.38" fill="#1e1e1e"/><rect x="0" y="372.38" width="41.38" height="41.38" fill="#181818"/><polygon points="0,372.38 41.38,372.38 41.38,413.76" fill="#1a1a1a"/><rect x="41.38" y="372.38" width="41.38" height="41.38" fill="#000000"/><polygon points="41.38,372.38 82.76,372.38 41.38,413.76" fill="#202020"/><rect x="82.75" y="331" width="82.75" height="82.75" fill="#000000"/><rect x="82.75" y="331" width="82.75" height="82.75" fill="#272727"/><rect x="165.5" y="331" width="82.75" height="82.75" fill="#000000"/><rect x="165.5" y="331" width="41.38" height="41.38" fill="#000000"/><path d="M 165.5 372.38 A 41.38 41.38 0 0 1 206.88 331 L 206.88 341.345 A 31.035000000000004 31.035000000000004 0 0 0 175.845 372.38" fill="#000000"/><rect x="206.88" y="331" width="41.38" height="41.38" fill="#000000"/><path d="M 206.88 331 A 41.38 41.38 0 0 1 248.26 372.38 L 237.915 372.38 A 31.035000000000004 31.035000000000004 0 0 0 206.88 341.345" fill="#151515"/><rect x="165.5" y="372.38" width="41.38" height="41.38" fill="#000000"/><path d="M 165.5 372.38 A 41.38 41.38 0 0 0 206.88 413.76 L 206.88 403.415 A 31.035000000000004 31.035000000000004 0 0 1 175.845 372.38" fill="#000000"/><rect x="206.88" y="372.38" width="41.38" height="41.38" fill="#000000"/><path d="M 206.88 413.76 A 41.38 41.38 0 0 0 248.26 372.38 L 237.915 372.38 A 31.035000000000004 31.035000000000004 0 0 1 206.88 403.415" fill="#202020"/><rect x="248.25" y="331" width="82.75" height="82.75" fill="#040404"/><polygon points="331,331 331,413.75 248.25,413.75" fill="#000000"/><rect x="0" y="413.75" width="82.75" height="82.75" fill="#101010"/><path d="M 0 496.5 A 82.75 82.75 0 0 1  82.75 413.75 L 82.75 496.5" fill="#020202"/><rect x="82.75" y="413.75" width="82.75" height="82.75" fill="#000000"/><rect x="82.75" y="413.75" width="41.38" height="41.38" fill="#181818"/><path d="M 82.75 455.13 A 41.38 41.38 0 0 0 124.13 413.75 L 82.75 413.75" fill="#000000"/><rect x="124.13" y="413.75" width="41.38" height="41.38" fill="#0b0b0b"/><path d="M 124.13 413.75 A 41.38 41.38 0 0 0 165.51 455.13 L 165.51 413.75" fill="#000000"/><rect x="82.75" y="455.13" width="41.38" height="41.38" fill="#191919"/><path d="M 82.75 455.13 A 41.38 41.38 0 0 1 124.13 496.51 L 82.75 496.51" fill="#000000"/><rect x="124.13" y="455.13" width="41.38" height="41.38" fill="#282828"/><path d="M 124.13 496.51 A 41.38 41.38 0 0 1  165.51 455.13 L 165.51 496.51" fill="#000000"/><rect x="165.5" y="413.75" width="82.75" height="82.75" fill="#000000"/><polygon points="165.5,413.75 248.25,413.75 165.5,496.5" fill="#000000"/><rect x="248.25" y="413.75" width="82.75" height="82.75" fill="#000000"/><rect x="248.25" y="413.75" width="41.38" height="41.38" fill="#020202"/><path d="M 248.25 455.13 A 41.38 41.38 0 0 1 289.63 413.75 L 289.63 424.095 A 31.035000000000004 31.035000000000004 0 0 0 258.595 455.13" fill="#171717"/><rect x="289.63" y="413.75" width="41.38" height="41.38" fill="#010101"/><path d="M 289.63 413.75 A 41.38 41.38 0 0 1 331.01 455.13 L 320.665 455.13 A 31.035000000000004 31.035000000000004 0 0 0 289.63 424.095" fill="#000000"/><rect x="248.25" y="455.13" width="41.38" height="41.38" fill="#000000"/><path d="M 248.25 455.13 A 41.38 41.38 0 0 0 289.63 496.51 L 289.63 486.165 A 31.035000000000004 31.035000000000004 0 0 1 258.595 455.13" fill="#000000"/><rect x="289.63" y="455.13" width="41.38" height="41.38" fill="#0e0e0e"/><path d="M 289.63 496.51 A 41.38 41.38 0 0 0 331.01 455.13 L 320.665 455.13 A 31.035000000000004 31.035000000000004 0 0 1 289.63 486.165" fill="#181818"/><rect x="0" y="496.5" width="82.75" height="82.75" fill="#000000"/><rect x="0" y="496.5" width="41.38" height="41.38" fill="#000000"/><path d="M 0 496.5 A 41.38 41.38 0 0 1 41.38 537.88 L 0 537.88" fill="#000000"/><rect x="41.38" y="496.5" width="41.38" height="41.38" fill="#040404"/><path d="M 41.38 537.88 A 41.38 41.38 0 0 1  82.76 496.5 L 82.76 537.88" fill="#000000"/><rect x="0" y="537.88" width="41.38" height="41.38" fill="#070707"/><path d="M 0 579.26 A 41.38 41.38 0 0 0 41.38 537.88 L 0 537.88" fill="#232323"/><rect x="41.38" y="537.88" width="41.38" height="41.38" fill="#000000"/><path d="M 41.38 537.88 A 41.38 41.38 0 0 0 82.76 579.26 L 82.76 537.88" fill="#141414"/><rect x="82.75" y="496.5" width="82.75" height="82.75" fill="#000000"/><polygon points="82.75,496.5 165.5,579.25 82.75,579.25" fill="#000000"/><rect x="165.5" y="496.5" width="82.75" height="82.75" fill="#000000"/><rect x="165.5" y="496.5" width="41.38" height="41.38" fill="#272727"/><path d="M 165.5 537.88 A 41.38 41.38 0 0 0 206.88 496.5 L 165.5 496.5" fill="#000000"/><rect x="206.88" y="496.5" width="41.38" height="41.38" fill="#171717"/><path d="M 206.88 496.5 A 41.38 41.38 0 0 0 248.26 537.88 L 248.26 496.5" fill="#000000"/><rect x="165.5" y="537.88" width="41.38" height="41.38" fill="#1d1d1d"/><path d="M 165.5 537.88 A 41.38 41.38 0 0 1 206.88 579.26 L 165.5 579.26" fill="#242424"/><rect x="206.88" y="537.88" width="41.38" height="41.38" fill="#000000"/><path d="M 206.88 579.26 A 41.38 41.38 0 0 1  248.26 537.88 L 248.26 579.26" fill="#000000"/><rect x="248.25" y="496.5" width="82.75" height="82.75" fill="#000000"/><rect x="248.25" y="496.5" width="41.38" height="41.38" fill="#000000"/><path d="M 248.25 537.88 A 41.38 41.38 0 0 1 289.63 496.5 L 289.63 506.845 A 31.035000000000004 31.035000000000004 0 0 0 258.595 537.88" fill="#202020"/><rect x="289.63" y="496.5" width="41.38" height="41.38" fill="#000000"/><path d="M 289.63 496.5 A 41.38 41.38 0 0 1 331.01 537.88 L 320.665 537.88 A 31.035000000000004 31.035000000000004 0 0 0 289.63 506.845" fill="#282828"/><rect x="248.25" y="537.88" width="41.38" height="41.38" fill="#000000"/><path d="M 248.25 537.88 A 41.38 41.38 0 0 0 289.63 579.26 L 289.63 568.915 A 31.035000000000004 31.035000000000004 0 0 1 258.595 537.88" fill="#000000"/><rect x="289.63" y="537.88" width="41.38" height="41.38" fill="#000000"/><path d="M 289.63 579.26 A 41.38 41.38 0 0 0 331.01 537.88 L 320.665 537.88 A 31.035000000000004 31.035000000000004 0 0 1 289.63 568.915" fill="#000000"/><rect x="0" y="579.25" width="82.75" height="82.75" fill="#000000"/><rect x="0" y="579.25" width="41.38" height="41.38" fill="#242424"/><path d="M 0 579.25 A 41.38 41.38 0 0 1 41.38 620.63 L 0 620.63" fill="#080808"/><rect x="41.38" y="579.25" width="41.38" height="41.38" fill="#010101"/><path d="M 41.38 620.63 A 41.38 41.38 0 0 1  82.76 579.25 L 82.76 620.63" fill="#000000"/><rect x="0" y="620.63" width="41.38" height="41.38" fill="#1a1a1a"/><path d="M 0 662.01 A 41.38 41.38 0 0 0 41.38 620.63 L 0 620.63" fill="#000000"/><rect x="41.38" y="620.63" width="41.38" height="41.38" fill="#212121"/><path d="M 41.38 620.63 A 41.38 41.38 0 0 0 82.76 662.01 L 82.76 620.63" fill="#010101"/><rect x="82.75" y="579.25" width="82.75" height="82.75" fill="#000000"/><rect x="82.75" y="579.25" width="41.38" height="41.38" fill="#282828"/><polygon points="124.13,579.25 124.13,620.63 82.75,620.63" fill="#000000"/><rect x="124.13" y="579.25" width="41.38" height="41.38" fill="#1e1e1e"/><polygon points="124.13,579.25 165.51,579.25 124.13,620.63" fill="#000000"/><rect x="82.75" y="620.63" width="41.38" height="41.38" fill="#000000"/><polygon points="82.75,620.63 124.13,620.63 124.13,662.01" fill="#000000"/><rect x="124.13" y="620.63" width="41.38" height="41.38" fill="#000000"/><polygon points="124.13,620.63 165.51,662.01 124.13,662.01" fill="#080808"/><rect x="165.5" y="579.25" width="82.75" height="82.75" fill="#000000"/><rect x="165.5" y="579.25" width="41.38" height="41.38" fill="#070707"/><path d="M 165.5 620.63 A 41.38 41.38 0 0 1  206.88 579.25 L 206.88 620.63" fill="#000000"/><rect x="206.88" y="579.25" width="41.38" height="41.38" fill="#0c0c0c"/><path d="M 206.88 579.25 A 41.38 41.38 0 0 1 248.26 620.63 L 206.88 620.63" fill="#000000"/><rect x="165.5" y="620.63" width="41.38" height="41.38" fill="#000000"/><path d="M 165.5 620.63 A 41.38 41.38 0 0 0 206.88 662.01 L 206.88 620.63" fill="#000000"/><rect x="206.88" y="620.63" width="41.38" height="41.38" fill="#000000"/><path d="M 206.88 662.01 A 41.38 41.38 0 0 0 248.26 620.63 L 206.88 620.63" fill="#000000"/><rect x="248.25" y="579.25" width="82.75" height="82.75" fill="#000000"/><rect x="248.25" y="579.25" width="41.38" height="41.38" fill="#262626"/><path d="M 248.25 620.63 A 41.38 41.38 0 0 1 289.63 579.25 L 289.63 589.595 A 31.035000000000004 31.035000000000004 0 0 0 258.595 620.63" fill="#000000"/><rect x="289.63" y="579.25" width="41.38" height="41.38" fill="#1b1b1b"/><path d="M 289.63 579.25 A 41.38 41.38 0 0 1 331.01 620.63 L 320.665 620.63 A 31.035000000000004 31.035000000000004 0 0 0 289.63 589.595" fill="#1b1b1b"/><rect x="248.25" y="620.63" width="41.38" height="41.38" fill="#030303"/><path d="M 248.25 620.63 A 41.38 41.38 0 0 0 289.63 662.01 L 289.63 651.665 A 31.035000000000004 31.035000000000004 0 0 1 258.595 620.63" fill="#0e0e0e"/><rect x="289.63" y="620.63" width="41.38" height="41.38" fill="#000000"/><path d="M 289.63 662.01 A 41.38 41.38 0 0 0 331.01 620.63 L 320.665 620.63 A 31.035000000000004 31.035000000000004 0 0 1 289.63 651.665" fill="#000000"/></g></svg>