<?xml version="1.0" standalone="no"?><svg xmlns:xlink="http://www.w3.org/1999/xlink" xmlns="http://www.w3.org/2000/svg" viewBox="0 0 1000 2000" preserveAspectRatio="xMaxYMax slice"><g transform="scale(3.0211480362537766)"><rect x="0" y="0" width="331" height="662" fill="#ffffff"/><rect x="0" y="0" width="55.17" height="55.17" fill="#d0f2f2"/><polygon points="0,0 55.17,0 0,55.17" fill="#cff2f2"/><rect x="55.17" y="0" width="55.17" height="55.17" fill="#bde3e7"/><polygon points="55.17,0 110.34,0 55.17,55.17" fill="#a9dbe0"/><rect x="110.33" y="0" width="55.17" height="55.17" fill="#c9f0f0"/><path d="M 110.33 0 A 55.17 55.17 0 0 0 165.5 55.17 L 165.5 0L110.33 0" fill="#d8f4f4"/><rect x="165.5" y="0" width="55.17" height="55.17" fill="#e8f9f9"/><polygon points="220.67000000000002,0 220.67000000000002,55.17 165.5,55.17" fill="#ceeaed"/><rect x="220.67" y="0" width="55.17" height="55.17" fill="#d1ecee"/><polygon points="220.67,0 275.84,0 220.67,55.17" fill="#e3f3f5"/><rect x="275.83" y="0" width="55.17" height="55.17" fill="#91d1d7"/><polygon points="275.83,0 331,0 275.83,55.17" fill="#e8f9f9"/><rect x="0" y="55.17" width="55.17" height="55.17" fill="#cef1f1"/><polygon points="0,55.17 55.17,110.34 0,110.34" fill="#fbfefe"/><rect x="55.17" y="55.17" width="55.17" height="55.17" fill="#e6f5f6"/><polygon points="55.17,55.17 110.34,55.17 110.34,110.34" fill="#bfeded"/><rect x="110.33" y="55.17" width="55.17" height="55.17" fill="#dbf0f2"/><rect x="110.33" y="55.17" width="55.17" height="55.17" fill="#bce3e7"/><rect x="165.5" y="55.17" width="55.17" height="55.17" fill="#dbf0f2"/><polygon points="165.5,55.17 220.67000000000002,55.17 220.67000000000002,110.34" fill="#a3d8de"/><rect x="220.67" y="55.17" width="55.17" height="55.17" fill="#ecfafa"/><polygon points="220.67,55.17 275.84,110.34 220.67,110.34" fill="#def6f6"/><rect x="275.83" y="55.17" width="55.17" height="55.17" fill="#8ecfd6"/><polygon points="331,55.17 331,110.34 275.83,110.34" fill="#cdf1f1"/><rect x="0" y="110.33" width="55.17" height="55.17" fill="#e7f5f6"/><path d="M 0 165.5 A 55.17 55.17 0 0 1  55.17 110.33 L 55.17 165.5L0 165.5" fill="#e8f8f8"/><rect x="55.17" y="110.33" width="55.17" height="55.17" fill="#e4f3f5"/><rect x="55.17" y="110.33" width="55.17" height="55.17" fill="#b5e0e4"/><rect x="110.33" y="110.33" width="55.17" height="55.17" fill="#e1f7f7"/><polygon points="110.33,110.33 165.5,110.33 165.5,165.5" fill="#c4eeee"/><rect x="165.5" y="110.33" width="55.17" height="55.17" fill="#8dcfd6"/><polygon points="165.5,110.33 220.67000000000002,110.33 220.67000000000002,165.5" fill="#c3e6e9"/><rect x="220.67" y="110.33" width="55.17" height="55.17" fill="#94d2d8"/><polygon points="275.84,110.33 275.84,165.5 220.67,165.5" fill="#e8f9f9"/><rect x="275.83" y="110.33" width="55.17" height="55.17" fill="#e7f8f8"/><rect x="275.83" y="110.33" width="55.17" height="55.17" fill="#d9f4f4"/><rect x="0" y="165.5" width="55.17" height="55.17" fill="#98d3da"/><polygon points="0,165.5 55.17,220.67000000000002 0,220.67000000000002" fill="#dbf0f2"/><rect x="55.17" y="165.5" width="55.17" height="55.17" fill="#e0f2f4"/><rect x="55.17" y="165.5" width="55.17" height="55.17" fill="#cdeaed"/><rect x="110.33" y="165.5" width="55.17" height="55.17" fill="#a3d8de"/><path d="M 110.33 220.67000000000002 A 55.17 55.17 0 0 0 165.5 165.5 L 110.33 165.5L110.33 220.67000000000002" fill="#edfafa"/><rect x="165.5" y="165.5" width="55.17" height="55.17" fill="#ecfafa"/><path d="M 165.5 220.67000000000002 A 55.17 55.17 0 0 1  220.67000000000002 165.5 L 220.67000000000002 220.67000000000002L165.5 220.67000000000002" fill="#c6e7eb"/><rect x="220.67" y="165.5" width="55.17" height="55.17" fill="#c5e6ea"/><polygon points="220.67,165.5 275.84,165.5 220.67,220.67000000000002" fill="#cef1f1"/><rect x="275.83" y="165.5" width="55.17" height="55.17" fill="#d6f4f4"/><rect x="275.83" y="165.5" width="55.17" height="55.17" fill="#d5f3f3"/><rect x="0" y="220.67" width="55.17" height="55.17" fill="#edfafa"/><path d="M 0 220.67 A 55.17 55.17 0 0 1 55.17 275.84 L 0 275.84L0 220.67" fill="#effafa"/><rect x="55.17" y="220.67" width="55.17" height="55.17" fill="#e8f9f9"/><polygon points="55.17,220.67 110.34,275.84 55.17,275.84" fill="#ebf6f8"/><rect x="110.33" y="220.67" width="55.17" height="55.17" fill="#d3f3f3"/><rect x="110.33" y="220.67" width="55.17" height="55.17" fill="#e2f7f7"/><rect x="165.5" y="220.67" width="55.17" height="55.17" fill="#99d4da"/><rect x="165.5" y="220.67" width="55.17" height="55.17" fill="#dcf5f5"/><rect x="220.67" y="220.67" width="55.17" height="55.17" fill="#9dd5db"/><path d="M 220.67 275.84 A 55.17 55.17 0 0 1  275.84 220.67 L 220.67 275.84 A 55.17 55.17 0 0 0 275.84 220.67" fill="#e5f4f6"/><rect x="275.83" y="220.67" width="55.17" height="55.17" fill="#e3f3f5"/><polygon points="331,220.67 331,275.84 275.83,275.84" fill="#a4d9de"/><rect x="0" y="275.83" width="55.17" height="55.17" fill="#fcfefe"/><rect x="0" y="275.83" width="55.17" height="55.17" fill="#bbe2e6"/><rect x="55.17" y="275.83" width="55.17" height="55.17" fill="#e5f4f6"/><path d="M 55.17 331 A 55.17 55.17 0 0 1  110.34 275.83 L 110.34 331L55.17 331" fill="#e5f4f6"/><rect x="110.33" y="275.83" width="55.17" height="55.17" fill="#d8f4f4"/><path d="M 110.33 331 A 55.17 55.17 0 0 1  165.5 275.83 L 165.5 331L110.33 331" fill="#e5f4f6"/><rect x="165.5" y="275.83" width="55.17" height="55.17" fill="#bbecec"/><rect x="165.5" y="275.83" width="55.17" height="55.17" fill="#f1fbfb"/><rect x="220.67" y="275.83" width="55.17" height="55.17" fill="#f1fbfb"/><polygon points="220.67,275.83 275.84,275.83 220.67,331" fill="#f4fafb"/><rect x="275.83" y="275.83" width="55.17" height="55.17" fill="#f7fdfd"/><path d="M 275.83 331 A 55.17 55.17 0 0 1  331 275.83 L 331 331L275.83 331" fill="#c5efef"/><rect x="0" y="331" width="55.17" height="55.17" fill="#9dd6db"/><path d="M 0 386.17 A 55.17 55.17 0 0 0 55.17 331 L 0 331L0 386.17" fill="#ecfafa"/><rect x="55.17" y="331" width="55.17" height="55.17" fill="#a3d8de"/><path d="M 55.17 331 A 55.17 55.17 0 0 1  110.34 386.17 L 55.17 331 A 55.17 55.17 0 0 0 110.34 386.17" fill="#d1f2f2"/><rect x="110.33" y="331" width="55.17" height="55.17" fill="#f3fafb"/><rect x="110.33" y="331" width="55.17" height="55.17" fill="#b8e1e5"/><rect x="165.5" y="331" width="55.17" height="55.17" fill="#b5e0e4"/><path d="M 165.5 386.17 A 55.17 55.17 0 0 0 220.67000000000002 331 L 165.5 331L165.5 386.17" fill="#c8e8eb"/><rect x="220.67" y="331" width="55.17" height="55.17" fill="#abdce1"/><path d="M 220.67 386.17 A 55.17 55.17 0 0 1  275.84 331 L 220.67 386.17 A 55.17 55.17 0 0 0 275.84 331" fill="#cff1f1"/><rect x="275.83" y="331" width="55.17" height="55.17" fill="#daf5f5"/><polygon points="331,331 331,386.17 275.83,386.17" fill="#d2f2f2"/><rect x="0" y="386.17" width="55.17" height="55.17" fill="#e4f7f7"/><rect x="0" y="386.17" width="55.17" height="55.17" fill="#e2f3f5"/><rect x="55.17" y="386.17" width="55.17" height="55.17" fill="#fdfefe"/><polygon points="55.17,386.17 110.34,386.17 55.17,441.34000000000003" fill="#e5f8f8"/><rect x="110.33" y="386.17" width="55.17" height="55.17" fill="#a9dbe0"/><path d="M 110.33 441.34000000000003 A 55.17 55.17 0 0 1  165.5 386.17 L 165.5 441.34000000000003L110.33 441.34000000000003" fill="#dbf5f5"/><rect x="165.5" y="386.17" width="55.17" height="55.17" fill="#f5fcfc"/><rect x="165.5" y="386.17" width="55.17" height="55.17" fill="#99d4da"/><rect x="220.67" y="386.17" width="55.17" height="55.17" fill="#d0f2f2"/><rect x="220.67" y="386.17" width="55.17" height="55.17" fill="#cbe9ec"/><rect x="275.83" y="386.17" width="55.17" height="55.17" fill="#d7f4f4"/><rect x="275.83" y="386.17" width="55.17" height="55.17" fill="#def6f6"/><rect x="0" y="441.33" width="55.17" height="55.17" fill="#b5e0e4"/><rect x="0" y="441.33" width="55.17" height="55.17" fill="#aadbe0"/><rect x="55.17" y="441.33" width="55.17" height="55.17" fill="#e1f7f7"/><path d="M 55.17 496.5 A 55.17 55.17 0 0 1  110.34 441.33 L 55.17 496.5 A 55.17 55.17 0 0 0 110.34 441.33" fill="#8fd0d6"/><rect x="110.33" y="441.33" width="55.17" height="55.17" fill="#f5fcfc"/><path d="M 110.33 441.33 A 55.17 55.17 0 0 1 165.5 496.5 L 110.33 496.5L110.33 441.33" fill="#e6f5f6"/><rect x="165.5" y="441.33" width="55.17" height="55.17" fill="#dff6f6"/><rect x="165.5" y="441.33" width="55.17" height="55.17" fill="#d9f5f5"/><rect x="220.67" y="441.33" width="55.17" height="55.17" fill="#cdf1f1"/><rect x="220.67" y="441.33" width="55.17" height="55.17" fill="#bfeded"/><rect x="275.83" y="441.33" width="55.17" height="55.17" fill="#bbecec"/><rect x="275.83" y="441.33" width="55.17" height="55.17" fill="#cdf1f1"/><rect x="0" y="496.5" width="55.17" height="55.17" fill="#94d2d8"/><path d="M 0 496.5 A 55.17 55.17 0 0 1  55.17 551.67 L 0 496.5 A 55.17 55.17 0 0 0 55.17 551.67" fill="#c9e8ec"/><rect x="55.17" y="496.5" width="55.17" height="55.17" fill="#ddf6f6"/><path d="M 55.17 496.5 A 55.17 55.17 0 0 1  110.34 551.67 L 55.17 496.5 A 55.17 55.17 0 0 0 110.34 551.67" fill="#f1fbfb"/><rect x="110.33" y="496.5" width="55.17" height="55.17" fill="#8fd0d6"/><path d="M 110.33 496.5 A 55.17 55.17 0 0 1 165.5 551.67 L 110.33 551.67L110.33 496.5" fill="#ffffff"/><rect x="165.5" y="496.5" width="55.17" height="55.17" fill="#ecfafa"/><rect x="165.5" y="496.5" width="55.17" height="55.17" fill="#bfe4e8"/><rect x="220.67" y="496.5" width="55.17" height="55.17" fill="#c1eeee"/><polygon points="275.84,496.5 275.84,551.67 220.67,551.67" fill="#f0f9fa"/><rect x="275.83" y="496.5" width="55.17" height="55.17" fill="#fcfefe"/><path d="M 275.83 551.67 A 55.17 55.17 0 0 1  331 496.5 L 331 551.67L275.83 551.67" fill="#94d2d8"/><rect x="0" y="551.67" width="55.17" height="55.17" fill="#c2e5e9"/><polygon points="0,551.67 55.17,551.67 55.17,606.8399999999999" fill="#fcfefe"/><rect x="55.17" y="551.67" width="55.17" height="55.17" fill="#ecfafa"/><path d="M 55.17 551.67 A 55.17 55.17 0 0 1  110.34 606.8399999999999 L 55.17 551.67 A 55.17 55.17 0 0 0 110.34 606.8399999999999" fill="#c0eded"/><rect x="110.33" y="551.67" width="55.17" height="55.17" fill="#d6eef0"/><path d="M 110.33 551.67 A 55.17 55.17 0 0 0 165.5 606.8399999999999 L 165.5 551.67L110.33 551.67" fill="#d2ecef"/><rect x="165.5" y="551.67" width="55.17" height="55.17" fill="#e6f4f6"/><path d="M 165.5 606.8399999999999 A 55.17 55.17 0 0 1  220.67000000000002 551.67 L 220.67000000000002 606.8399999999999L165.5 606.8399999999999" fill="#e5f8f8"/><rect x="220.67" y="551.67" width="55.17" height="55.17" fill="#edfafa"/><path d="M 220.67 551.67 A 55.17 55.17 0 0 0 275.84 606.8399999999999 L 275.84 551.67L220.67 551.67" fill="#9bd5db"/><rect x="275.83" y="551.67" width="55.17" height="55.17" fill="#c1e5e9"/><polygon points="275.83,551.67 331,551.67 275.83,606.8399999999999" fill="#beeded"/><rect x="0" y="606.83" width="55.17" height="55.17" fill="#c8f0f0"/><path d="M 0 662 A 55.17 55.17 0 0 1  55.17 606.83 L 55.17 662L0 662" fill="#e7f8f8"/><rect x="55.17" y="606.83" width="55.17" height="55.17" fill="#f8fdfd"/><rect x="55.17" y="606.83" width="55.17" height="55.17" fill="#edf7f9"/><rect x="110.33" y="606.83" width="55.17" height="55.17" fill="#cfebee"/><polygon points="165.5,606.83 165.5,662 110.33,662" fill="#c4efef"/><rect x="165.5" y="606.83" width="55.17" height="55.17" fill="#f5fbfb"/><path d="M 165.5 606.83 A 55.17 55.17 0 0 0 220.67000000000002 662 L 220.67000000000002 606.83L165.5 606.83" fill="#a0d7dd"/><rect x="220.67" y="606.83" width="55.17" height="55.17" fill="#bfeded"/><polygon points="220.67,606.83 275.84,662 220.67,662" fill="#bdeded"/><rect x="275.83" y="606.83" width="55.17" height="55.17" fill="#eaf6f8"/><polygon points="275.83,606.83 331,606.83 275.83,662" fill="#fefeff"/></g></svg>