<?xml version="1.0" standalone="no"?><svg xmlns:xlink="http://www.w3.org/1999/xlink" xmlns="http://www.w3.org/2000/svg" viewBox="0 0 700 1400" preserveAspectRatio="xMaxYMax slice"><g transform="scale(2.1148036253776437)"><rect x="0" y="0" width="331" height="662" fill="#ffffff"/><rect x="0" y="0" width="55.17" height="55.17" fill="#58fff1"/><polygon points="55.17,0 55.17,55.17 0,55.17" fill="#70daed"/><rect x="55.17" y="0" width="55.17" height="55.17" fill="#60fff2"/><polygon points="55.17,0 110.34,0 110.34,55.17" fill="#8dfff6"/><rect x="110.33" y="0" width="55.17" height="55.17" fill="#9efff7"/><path d="M 110.33 0 A 55.17 55.17 0 0 1 165.5 55.17 L 110.33 55.17L110.33 0" fill="#31cae5"/><rect x="165.5" y="0" width="55.17" height="55.17" fill="#8be1f0"/><rect x="165.5" y="0" width="55.17" height="55.17" fill="#d2fffb"/><rect x="220.67" y="0" width="55.17" height="55.17" fill="#f0fbfd"/><rect x="220.67" y="0" width="55.17" height="55.17" fill="#6bfff3"/><rect x="275.83" y="0" width="55.17" height="55.17" fill="#48fff0"/><polygon points="275.83,0 331,0 275.83,55.17" fill="#dffffc"/><rect x="0" y="55.17" width="55.17" height="55.17" fill="#c5f0f8"/><polygon points="0,55.17 55.17,55.17 0,110.34" fill="#90e3f1"/><rect x="55.17" y="55.17" width="55.17" height="55.17" fill="#b8edf6"/><path d="M 55.17 110.34 A 55.17 55.17 0 0 1  110.34 55.17 L 110.34 110.34L55.17 110.34" fill="#b9edf6"/><rect x="110.33" y="55.17" width="55.17" height="55.17" fill="#5afff1"/><polygon points="110.33,55.17 165.5,55.17 165.5,110.34" fill="#85fff5"/><rect x="165.5" y="55.17" width="55.17" height="55.17" fill="#6ddaed"/><rect x="165.5" y="55.17" width="55.17" height="55.17" fill="#24c7e4"/><rect x="220.67" y="55.17" width="55.17" height="55.17" fill="#ebfafd"/><polygon points="220.67,55.17 275.84,55.17 275.84,110.34" fill="#38ffee"/><rect x="275.83" y="55.17" width="55.17" height="55.17" fill="#70fff3"/><rect x="275.83" y="55.17" width="55.17" height="55.17" fill="#3ccde7"/><rect x="0" y="110.33" width="55.17" height="55.17" fill="#97fff6"/><path d="M 0 110.33 A 55.17 55.17 0 0 0 55.17 165.5 L 55.17 110.33L0 110.33" fill="#47fff0"/><rect x="55.17" y="110.33" width="55.17" height="55.17" fill="#faffff"/><polygon points="55.17,110.33 110.34,110.33 55.17,165.5" fill="#dcfffc"/><rect x="110.33" y="110.33" width="55.17" height="55.17" fill="#abfff8"/><rect x="110.33" y="110.33" width="55.17" height="55.17" fill="#8efff6"/><rect x="165.5" y="110.33" width="55.17" height="55.17" fill="#46d0e8"/><rect x="165.5" y="110.33" width="55.17" height="55.17" fill="#a2e7f3"/><rect x="220.67" y="110.33" width="55.17" height="55.17" fill="#47d0e8"/><rect x="220.67" y="110.33" width="55.17" height="55.17" fill="#92fff6"/><rect x="275.83" y="110.33" width="55.17" height="55.17" fill="#48d0e8"/><rect x="275.83" y="110.33" width="55.17" height="55.17" fill="#5afff1"/><rect x="0" y="165.5" width="55.17" height="55.17" fill="#f3fffe"/><rect x="0" y="165.5" width="55.17" height="55.17" fill="#44ffef"/><rect x="55.17" y="165.5" width="55.17" height="55.17" fill="#38cce6"/><polygon points="55.17,165.5 110.34,165.5 55.17,220.67000000000002" fill="#69fff3"/><rect x="110.33" y="165.5" width="55.17" height="55.17" fill="#baedf6"/><path d="M 110.33 220.67000000000002 A 55.17 55.17 0 0 1  165.5 165.5 L 165.5 220.67000000000002L110.33 220.67000000000002" fill="#48d0e8"/><rect x="165.5" y="165.5" width="55.17" height="55.17" fill="#9ce6f3"/><polygon points="220.67000000000002,165.5 220.67000000000002,220.67000000000002 165.5,220.67000000000002" fill="#adeaf5"/><rect x="220.67" y="165.5" width="55.17" height="55.17" fill="#79fff4"/><rect x="220.67" y="165.5" width="55.17" height="55.17" fill="#dbfffc"/><rect x="275.83" y="165.5" width="55.17" height="55.17" fill="#25c7e4"/><rect x="275.83" y="165.5" width="55.17" height="55.17" fill="#53fff1"/><rect x="0" y="220.67" width="55.17" height="55.17" fill="#ebfffd"/><polygon points="0,220.67 55.17,220.67 0,275.84" fill="#b9edf6"/><rect x="55.17" y="220.67" width="55.17" height="55.17" fill="#47fff0"/><path d="M 55.17 275.84 A 55.17 55.17 0 0 1  110.34 220.67 L 55.17 275.84 A 55.17 55.17 0 0 0 110.34 220.67" fill="#76fff4"/><rect x="110.33" y="220.67" width="55.17" height="55.17" fill="#5bd5ea"/><polygon points="165.5,220.67 165.5,275.84 110.33,275.84" fill="#befffa"/><rect x="165.5" y="220.67" width="55.17" height="55.17" fill="#edfafd"/><path d="M 165.5 220.67 A 55.17 55.17 0 0 1  220.67000000000002 275.84 L 165.5 220.67 A 55.17 55.17 0 0 0 220.67000000000002 275.84" fill="#ecfafd"/><rect x="220.67" y="220.67" width="55.17" height="55.17" fill="#5cfff1"/><rect x="220.67" y="220.67" width="55.17" height="55.17" fill="#b7ecf6"/><rect x="275.83" y="220.67" width="55.17" height="55.17" fill="#53d3e9"/><polygon points="275.83,220.67 331,275.84 275.83,275.84" fill="#b3fff9"/><rect x="0" y="275.83" width="55.17" height="55.17" fill="#5cd5eb"/><polygon points="0,275.83 55.17,275.83 55.17,331" fill="#66d8ec"/><rect x="55.17" y="275.83" width="55.17" height="55.17" fill="#3dffef"/><rect x="55.17" y="275.83" width="55.17" height="55.17" fill="#ddfffc"/><rect x="110.33" y="275.83" width="55.17" height="55.17" fill="#83dfef"/><path d="M 110.33 331 A 55.17 55.17 0 0 0 165.5 275.83 L 110.33 275.83L110.33 331" fill="#b6ecf6"/><rect x="165.5" y="275.83" width="55.17" height="55.17" fill="#66d8ec"/><polygon points="220.67000000000002,275.83 220.67000000000002,331 165.5,331" fill="#6cfff3"/><rect x="220.67" y="275.83" width="55.17" height="55.17" fill="#5ffff2"/><rect x="220.67" y="275.83" width="55.17" height="55.17" fill="#90e3f1"/><rect x="275.83" y="275.83" width="55.17" height="55.17" fill="#56fff1"/><path d="M 275.83 275.83 A 55.17 55.17 0 0 1 331 331 L 275.83 331L275.83 275.83" fill="#e3f8fb"/><rect x="0" y="331" width="55.17" height="55.17" fill="#77dcee"/><polygon points="0,331 55.17,386.17 0,386.17" fill="#79fff4"/><rect x="55.17" y="331" width="55.17" height="55.17" fill="#4dfff0"/><polygon points="55.17,331 110.34,386.17 55.17,386.17" fill="#b1ebf5"/><rect x="110.33" y="331" width="55.17" height="55.17" fill="#dbfffc"/><rect x="110.33" y="331" width="55.17" height="55.17" fill="#22c7e3"/><rect x="165.5" y="331" width="55.17" height="55.17" fill="#9ee6f3"/><path d="M 165.5 331 A 55.17 55.17 0 0 0 220.67000000000002 386.17 L 220.67000000000002 331L165.5 331" fill="#f8fffe"/><rect x="220.67" y="331" width="55.17" height="55.17" fill="#cffffb"/><path d="M 220.67 386.17 A 55.17 55.17 0 0 1  275.84 331 L 275.84 386.17L220.67 386.17" fill="#82fff5"/><rect x="275.83" y="331" width="55.17" height="55.17" fill="#79ddee"/><rect x="275.83" y="331" width="55.17" height="55.17" fill="#c6f0f8"/><rect x="0" y="386.17" width="55.17" height="55.17" fill="#95e4f2"/><rect x="0" y="386.17" width="55.17" height="55.17" fill="#dbfffc"/><rect x="55.17" y="386.17" width="55.17" height="55.17" fill="#95fff6"/><polygon points="55.17,386.17 110.34,386.17 55.17,441.34000000000003" fill="#c6f0f8"/><rect x="110.33" y="386.17" width="55.17" height="55.17" fill="#56fff1"/><path d="M 110.33 386.17 A 55.17 55.17 0 0 1 165.5 441.34000000000003 L 110.33 441.34000000000003L110.33 386.17" fill="#80fff4"/><rect x="165.5" y="386.17" width="55.17" height="55.17" fill="#effffe"/><path d="M 165.5 386.17 A 55.17 55.17 0 0 1  220.67000000000002 441.34000000000003 L 165.5 386.17 A 55.17 55.17 0 0 0 220.67000000000002 441.34000000000003" fill="#e2fffd"/><rect x="220.67" y="386.17" width="55.17" height="55.17" fill="#ccfffb"/><path d="M 220.67 386.17 A 55.17 55.17 0 0 1 275.84 441.34000000000003 L 220.67 441.34000000000003L220.67 386.17" fill="#9ae5f2"/><rect x="275.83" y="386.17" width="55.17" height="55.17" fill="#86e0f0"/><rect x="275.83" y="386.17" width="55.17" height="55.17" fill="#bfeff7"/><rect x="0" y="441.33" width="55.17" height="55.17" fill="#8ee2f1"/><polygon points="0,441.33 55.17,496.5 0,496.5" fill="#42ffef"/><rect x="55.17" y="441.33" width="55.17" height="55.17" fill="#defffc"/><polygon points="55.17,441.33 110.34,441.33 110.34,496.5" fill="#93e3f1"/><rect x="110.33" y="441.33" width="55.17" height="55.17" fill="#6cfff3"/><polygon points="110.33,441.33 165.5,441.33 165.5,496.5" fill="#51d2e9"/><rect x="165.5" y="441.33" width="55.17" height="55.17" fill="#93e3f1"/><polygon points="165.5,441.33 220.67000000000002,496.5 165.5,496.5" fill="#4fd2e9"/><rect x="220.67" y="441.33" width="55.17" height="55.17" fill="#cef3f9"/><path d="M 220.67 441.33 A 55.17 55.17 0 0 0 275.84 496.5 L 275.84 441.33L220.67 441.33" fill="#83fff5"/><rect x="275.83" y="441.33" width="55.17" height="55.17" fill="#94fff6"/><polygon points="275.83,441.33 331,441.33 275.83,496.5" fill="#ddf6fb"/><rect x="0" y="496.5" width="55.17" height="55.17" fill="#5cfff1"/><path d="M 0 496.5 A 55.17 55.17 0 0 1 55.17 551.67 L 0 551.67L0 496.5" fill="#8ffff6"/><rect x="55.17" y="496.5" width="55.17" height="55.17" fill="#b4ecf6"/><polygon points="55.17,496.5 110.34,496.5 110.34,551.67" fill="#23c7e3"/><rect x="110.33" y="496.5" width="55.17" height="55.17" fill="#67d8ec"/><polygon points="110.33,496.5 165.5,496.5 110.33,551.67" fill="#b9edf6"/><rect x="165.5" y="496.5" width="55.17" height="55.17" fill="#bdfff9"/><polygon points="165.5,496.5 220.67000000000002,496.5 220.67000000000002,551.67" fill="#5efff2"/><rect x="220.67" y="496.5" width="55.17" height="55.17" fill="#baedf6"/><path d="M 220.67 551.67 A 55.17 55.17 0 0 1  275.84 496.5 L 220.67 551.67 A 55.17 55.17 0 0 0 275.84 496.5" fill="#7fdeef"/><rect x="275.83" y="496.5" width="55.17" height="55.17" fill="#53fff1"/><rect x="275.83" y="496.5" width="55.17" height="55.17" fill="#f8fdfe"/><rect x="0" y="551.67" width="55.17" height="55.17" fill="#5ad5ea"/><path d="M 0 606.8399999999999 A 55.17 55.17 0 0 0 55.17 551.67 L 0 551.67L0 606.8399999999999" fill="#fafefe"/><rect x="55.17" y="551.67" width="55.17" height="55.17" fill="#51d3e9"/><rect x="55.17" y="551.67" width="55.17" height="55.17" fill="#eafffd"/><rect x="110.33" y="551.67" width="55.17" height="55.17" fill="#54fff1"/><rect x="110.33" y="551.67" width="55.17" height="55.17" fill="#a6fff8"/><rect x="165.5" y="551.67" width="55.17" height="55.17" fill="#91e3f1"/><rect x="165.5" y="551.67" width="55.17" height="55.17" fill="#4dd2e9"/><rect x="220.67" y="551.67" width="55.17" height="55.17" fill="#89e1f0"/><path d="M 220.67 606.8399999999999 A 55.17 55.17 0 0 0 275.84 551.67 L 220.67 551.67L220.67 606.8399999999999" fill="#1dc5e3"/><rect x="275.83" y="551.67" width="55.17" height="55.17" fill="#5bd5ea"/><rect x="275.83" y="551.67" width="55.17" height="55.17" fill="#adeaf5"/><rect x="0" y="606.83" width="55.17" height="55.17" fill="#48d0e8"/><rect x="0" y="606.83" width="55.17" height="55.17" fill="#eafffd"/><rect x="55.17" y="606.83" width="55.17" height="55.17" fill="#b8fff9"/><rect x="55.17" y="606.83" width="55.17" height="55.17" fill="#82fff5"/><rect x="110.33" y="606.83" width="55.17" height="55.17" fill="#a9e9f4"/><polygon points="110.33,606.83 165.5,606.83 165.5,662" fill="#86e0f0"/><rect x="165.5" y="606.83" width="55.17" height="55.17" fill="#31cae5"/><rect x="165.5" y="606.83" width="55.17" height="55.17" fill="#65d8ec"/><rect x="220.67" y="606.83" width="55.17" height="55.17" fill="#c6fffa"/><path d="M 220.67 606.83 A 55.17 55.17 0 0 1  275.84 662 L 220.67 606.83 A 55.17 55.17 0 0 0 275.84 662" fill="#67d8ec"/><rect x="275.83" y="606.83" width="55.17" height="55.17" fill="#66d8ec"/><rect x="275.83" y="606.83" width="55.17" height="55.17" fill="#e7f9fc"/></g></svg>